<svg xmlns="http://www.w3.org/2000/svg" viewBox="0 0 24 24" fill="none">
  <polygon points="12,2 14.5,9 12,7.5 9.5,9" fill="currentColor" fill-opacity="0.9"/>
  <polygon points="12,22 9.5,15 12,16.5 14.5,15" fill="currentColor" fill-opacity="0.9"/>
  <polygon points="2,12 9,9.5 7.5,12 9,14.5" fill="currentColor" fill-opacity="0.9"/>
  <polygon points="22,12 15,14.5 16.5,12 15,9.5" fill="currentColor" fill-opacity="0.9"/>
  <polygon points="5.6,5.6 10.3,6.9 8.3,8.3 6.9,10.3" fill="currentColor" fill-opacity="0.7"/>
  <polygon points="18.4,5.6 13.7,6.9 15.7,8.3 17.1,10.3" fill="currentColor" fill-opacity="0.7"/>
  <polygon points="5.6,18.4 10.3,17.1 8.3,15.7 6.9,13.7" fill="currentColor" fill-opacity="0.7"/>
  <polygon points="18.4,18.4 13.7,17.1 15.7,15.7 17.1,13.7" fill="currentColor" fill-opacity="0.7"/>
  <circle cx="12" cy="12" r="1.5" fill="currentColor" fill-opacity="0.9"/>
  <circle cx="13.5" cy="7.5" r="0.8" fill="currentColor" fill-opacity="0.4"/>
  <circle cx="8.5" cy="14" r="0.6" fill="currentColor" fill-opacity="0.3"/>
  <circle cx="16.5" cy="15" r="0.5" fill="currentColor" fill-opacity="0.3"/>
</svg>
